<svg width="512" height="390" viewBox="0 0 512 390" fill="none" xmlns="http://www.w3.org/2000/svg">
<path d="M121.521 74.18L106.157 89.544C102.117 93.585 102.117 100.136 106.157 104.178C108.178 106.199 110.827 107.209 113.474 107.209C116.122 107.209 118.771 106.199 120.79 104.178L136.154 88.814C140.195 84.773 140.195 78.222 136.154 74.18C132.115 70.139 125.563 70.14 121.521 74.18Z" fill="#B20A2C"/>
<path d="M69.576 126.127L60.116 135.587C56.075 139.627 56.075 146.179 60.116 150.22C62.137 152.241 64.785 153.251 67.432 153.251C70.08 153.251 72.729 152.241 74.748 150.22L84.208 140.76C88.248 136.72 88.248 130.168 84.208 126.127C80.168 122.087 73.617 122.087 69.576 126.127Z" fill="#B20A2C"/>
<path d="M508.97 122.968L389.032 3.03C384.991 -1.01 378.439 -1.01 374.399 3.03L325.764 51.665C323.824 53.605 322.733 56.237 322.733 58.981C322.733 61.725 323.824 64.357 325.764 66.297L329.846 70.379L315.344 84.881C310.179 90.046 303.678 93.078 294.925 94.392L212.459 94.507C206.775 94.507 201.506 96.328 197.19 99.41L190.639 92.86L194.686 88.813C196.626 86.873 197.717 84.241 197.717 81.497C197.717 78.753 196.626 76.121 194.686 74.181L137.601 17.097C133.562 13.056 127.009 13.056 122.968 17.097L3.031 137.034C1.091 138.974 0 141.606 0 144.35C0 147.094 1.091 149.726 3.031 151.666L60.116 208.751C62.137 210.772 64.785 211.782 67.432 211.782C70.08 211.782 72.729 210.772 74.748 208.751L78.162 205.337L93.35 220.526C98.363 225.538 102.24 231.418 104.873 238L105.46 239.466C109.139 248.667 114.558 256.883 121.564 263.889L237.863 380.188C243.781 386.106 251.555 389.066 259.33 389.066C267.105 389.066 274.878 386.107 280.797 380.188C283.773 377.211 286.007 373.769 287.497 370.094C298.623 374.977 312.101 372.872 321.198 363.775C323.917 361.055 326.061 357.91 327.568 354.488C339.073 360.711 353.781 358.968 363.493 349.256C373.215 339.534 374.99 324.828 368.82 313.286C372.129 311.829 375.223 309.75 377.923 307.051C377.934 307.04 378 306.974 378.011 306.963C389.906 295.068 389.906 275.713 378.011 263.818L377.26 263.067L396.825 243.503C402.643 237.684 410.896 227.244 414.977 217.038L415.601 215.511C418.226 208.948 422.106 203.072 427.134 198.044L442.323 182.855L445.703 186.235C447.643 188.175 450.275 189.266 453.019 189.266C455.763 189.266 458.395 188.175 460.335 186.235L508.97 137.6C513.011 133.561 513.011 127.009 508.97 122.968ZM70.846 183.388C70.841 183.393 70.836 183.4 70.829 183.406L67.431 186.804L24.98 144.35L130.285 39.045L172.738 81.497L168.708 85.527C168.703 85.532 168.696 85.537 168.69 85.543L70.846 183.388ZM363.414 292.296C363.403 292.307 363.337 292.372 363.326 292.384C359.524 296.186 353.519 296.14 349.659 292.277C349.068 291.686 289.165 232.202 289.165 232.202C288.019 231.057 286.668 230.247 285.232 229.752C282.555 228.827 279.578 229.02 277.036 230.356C276.135 230.83 275.288 231.445 274.531 232.202C272.259 234.475 271.264 237.542 271.548 240.511C271.58 240.841 271.627 241.169 271.69 241.495C271.816 242.147 272.006 242.789 272.258 243.412C272.763 244.658 273.52 245.825 274.53 246.835C274.53 246.835 349.515 321.741 349.948 322.057C352.632 325.885 352.275 331.21 348.858 334.625C345.09 338.394 338.958 338.394 335.191 334.625L255.075 254.929C254.318 254.172 253.471 253.556 252.57 253.082C248.666 251.03 243.724 251.646 240.441 254.929C238 257.37 237.045 260.724 237.552 263.889C237.884 265.966 238.84 267.961 240.441 269.561L308.055 337.174C310.31 340.924 309.816 345.888 306.563 349.141C304.737 350.967 302.31 351.972 299.729 351.972C297.148 351.972 294.721 350.966 292.896 349.141L218.462 275.127C214.421 271.087 207.87 271.087 203.828 275.127C203.576 275.38 203.339 275.642 203.118 275.913C199.803 279.977 200.04 285.972 203.828 289.76L267.656 353.587C269.911 357.337 269.416 362.301 266.163 365.554C262.395 369.322 256.263 369.321 252.496 365.554L136.197 249.254C131.184 244.241 127.307 238.362 124.675 231.78L124.088 230.313C120.408 221.113 114.99 212.897 107.984 205.891L92.796 190.702L176.007 107.492L186.274 117.758C186.152 118.773 186.081 119.803 186.077 120.85C186.077 120.939 186.077 121.029 186.079 121.119C186.572 142.475 204.159 159.85 225.331 159.85L244.692 159.765L363.379 278.453C367.205 282.279 367.205 288.505 363.414 292.296ZM412.5 183.42C405.48 190.44 400.059 198.66 396.416 207.771L395.792 209.311C393.442 215.186 387.85 223.266 382.192 228.924L362.676 248.485L307.688 193.497C326.813 193.057 337.72 187.636 338.362 187.308L328.937 168.885L329.039 168.833C328.877 168.911 312.876 176.405 284.86 170.668L256.291 142.099L256.198 142.139C254.274 140.303 251.714 139.461 249.045 139.461C249.03 139.461 249.015 139.461 249.001 139.461L225.289 139.362C215.363 139.362 207.091 130.939 206.776 120.803C206.846 117.756 209.425 115.203 212.475 115.203L295.688 115.087C296.158 115.087 296.628 115.054 297.092 114.99C310.692 113.108 321.449 108.046 329.978 99.517L344.481 85.016L427.692 168.229L412.5 183.42ZM453.019 164.287L449.644 160.912C449.642 160.91 449.641 160.909 449.639 160.907L351.796 63.064C351.794 63.062 351.793 63.061 351.791 63.059L347.714 58.982L381.716 24.98L487.02 130.284L453.019 164.287Z" fill="#B20A2C"/>
</svg>
