<svg width="676" height="492" viewBox="0 0 676 492" fill="none" xmlns="http://www.w3.org/2000/svg">
<path d="M0.737064 352.596C16.2176 372.193 33.3695 390.409 51.9999 407.04C51.9426 405.406 51.7134 403.859 51.7134 402.226C51.8254 373.144 60.7341 344.776 77.2684 320.852C93.8028 296.928 117.189 278.566 144.353 268.18C149.349 266.29 153.718 263.041 156.965 258.799C160.212 254.558 162.209 249.493 162.731 244.177C163.252 238.861 162.278 233.505 159.916 228.713C157.555 223.922 153.901 219.885 149.368 217.06C136.979 209.407 126.763 198.7 119.699 185.966C112.635 173.232 108.958 158.897 109.022 144.335C108.96 127.641 113.779 111.293 122.887 97.3025C131.995 83.3118 144.994 72.289 160.286 65.5903C175.577 58.8916 192.493 56.8094 208.952 59.5997C225.411 62.3901 240.696 69.9313 252.925 81.2955C270.838 71.0137 290.47 64.0717 310.864 60.8076C299.686 45.1906 285.478 31.9835 269.088 21.9733C252.698 11.963 234.46 5.35442 215.462 2.54125C196.464 -0.271922 177.094 0.767894 158.506 5.59875C139.918 10.4296 122.493 18.9526 107.269 30.66C92.0442 42.3674 79.3321 57.0196 69.8899 73.7435C60.4477 90.4674 54.4685 108.921 52.3086 128.004C50.1486 147.088 51.8522 166.411 57.3177 184.822C62.7833 203.233 71.8989 220.356 84.1216 235.17C42.8822 262.778 13.2109 304.562 0.737064 352.596V352.596ZM675.779 352.596C663.318 304.541 633.645 262.734 592.394 235.113C604.577 220.294 613.656 203.178 619.092 184.781C624.527 166.384 626.208 147.081 624.035 128.022C621.862 108.962 615.878 90.5335 606.44 73.8323C597.003 57.1311 584.303 42.498 569.097 30.8028C553.891 19.1076 536.489 10.5892 517.925 5.75395C499.361 0.918678 480.015 -0.134725 461.035 2.65636C442.056 5.44745 423.832 12.026 407.446 22.0011C391.06 31.9761 376.847 45.1439 365.652 60.7216C386.047 63.9845 405.679 70.9266 423.591 81.2096C432.371 73.1349 442.738 66.9805 454.031 63.1395C465.323 59.2985 477.293 57.8554 489.175 58.9024C501.057 59.9494 512.59 63.4635 523.037 69.2201C533.484 74.9768 542.616 82.8493 549.848 92.3348C557.08 101.82 562.254 112.71 565.039 124.309C567.825 135.907 568.16 147.959 566.024 159.694C563.887 171.429 559.327 182.59 552.633 192.463C545.939 202.335 537.259 210.703 527.148 217.032C522.615 219.857 518.961 223.893 516.6 228.684C514.239 233.476 513.264 238.832 513.785 244.148C514.307 249.465 516.304 254.529 519.551 258.771C522.798 263.012 527.167 266.261 532.163 268.151C559.332 278.539 582.721 296.905 599.256 320.835C615.79 344.765 624.696 373.139 624.803 402.226C624.803 403.859 624.573 405.406 624.516 407.011C643.145 390.389 660.297 372.183 675.779 352.596V352.596Z" fill="#B20A2C"/>
<path d="M537.522 467.672C534.408 438.266 524.878 409.901 509.604 384.581C494.329 359.261 473.683 337.602 449.123 321.133C470.191 295.563 481.655 263.43 481.531 230.299C481.518 207.343 475.989 184.727 465.41 164.354C454.831 143.982 439.512 126.449 420.742 113.234C401.973 100.018 380.302 91.5055 357.556 88.4136C334.81 85.3217 311.653 87.7407 290.037 95.4669C268.421 103.193 248.977 116 233.344 132.81C217.711 149.619 206.346 169.939 200.206 192.059C194.066 214.178 193.331 237.448 198.062 259.911C202.794 282.374 212.854 303.37 227.394 321.133C202.834 337.602 182.188 359.261 166.913 384.581C151.639 409.901 142.108 438.266 138.995 467.672C157.185 477.123 176.031 485.253 195.387 492C195.33 490.711 194.986 489.507 194.986 488.189C195.106 459.109 204.018 430.745 220.551 406.822C237.084 382.899 260.466 364.536 287.626 354.143C292.629 352.256 297.005 349.007 300.257 344.763C303.51 340.519 305.511 335.45 306.032 330.128C306.554 324.806 305.576 319.445 303.21 314.65C300.843 309.855 297.182 305.818 292.64 302.995C280.248 295.352 270.029 284.652 262.964 271.921C255.899 259.191 252.225 244.858 252.295 230.299C252.295 207.5 261.352 185.635 277.473 169.513C293.594 153.392 315.459 144.335 338.258 144.335C361.057 144.335 382.922 153.392 399.044 169.513C415.165 185.635 424.222 207.5 424.222 230.299C424.292 244.858 420.618 259.191 413.553 271.921C406.488 284.652 396.268 295.352 383.876 302.995C379.335 305.818 375.674 309.855 373.307 314.65C370.94 319.445 369.963 324.806 370.484 330.128C371.006 335.45 373.006 340.519 376.259 344.763C379.512 349.007 383.888 352.256 388.891 354.143C416.051 364.536 439.432 382.899 455.966 406.822C472.499 430.745 481.411 459.109 481.531 488.189C481.531 489.507 481.187 490.711 481.158 492C500.505 485.252 519.341 477.122 537.522 467.672V467.672Z" fill="#B20A2C"/>
</svg>
