<svg width="27" height="30" viewBox="0 0 27 30" fill="none" xmlns="http://www.w3.org/2000/svg">
<path d="M23.0519 4.38771C25.6909 6.90311 26 10.199 26 13.4983C26 16.7942 25.6876 20.0934 23.0519 22.6088C20.413 25.1242 16.9573 25.4194 13.4984 25.4194C12.3204 25.4194 11.6762 25.4456 10.5308 25.298C9.96785 25.2259 7.94065 28.6005 7.39724 28.4693C7.06534 28.3873 6.92217 24.4945 6.71717 24.4093C5.72797 23.996 4.79409 23.4156 3.94807 22.6088C1.30912 20.0934 1 16.7975 1 13.4983C1 10.2023 1.31238 6.90311 3.94807 4.38771C6.58376 1.87231 10.0427 1.57715 13.5016 1.57715C16.9573 1.57715 20.4162 1.87231 23.0519 4.38771Z" stroke="#AB68FF" stroke-width="1.5" stroke-miterlimit="10" stroke-linecap="round" stroke-linejoin="round"/>
<path d="M8.8945 16.1842C12.8122 20.4017 16.6584 21.6676 17.602 21.5233C18.5457 21.3757 20.2865 19.8507 20.2149 18.8603C20.1434 17.8699 17.0944 15.7481 16.3688 15.8202C15.6432 15.8924 15.282 16.7713 15.282 16.7713C15.282 16.7713 14.9208 17.6961 13.6843 17.1353C11.9337 16.3384 8.75133 12.8949 8.8945 12.1635C8.8945 12.1635 8.79688 11.5798 9.76655 11.019C10.2677 10.7271 10.9282 10.0187 10.1538 8.75281C9.37934 7.48691 8.14609 5.38801 6.79246 6.36531C5.43882 7.34261 4.4724 8.14281 5.0093 9.73011C5.95619 12.5275 8.8945 16.1842 8.8945 16.1842Z" stroke="#AB68FF" stroke-width="1.5" stroke-miterlimit="10" stroke-linecap="round" stroke-linejoin="round"/>
<path d="M14.0098 9.2446C14.0098 9.2446 15.1682 9.09374 16.0305 10.0809C16.8309 10.9959 16.5999 12.2191 16.5999 12.2191" stroke="#AB68FF" stroke-width="1.5" stroke-miterlimit="10" stroke-linecap="round" stroke-linejoin="round"/>
<path d="M18.7466 12.7671C18.7466 12.7671 19.2639 10.2582 17.2953 8.40529C15.3267 6.55235 13.2832 7.05412 13.2832 7.05412" stroke="#AB68FF" stroke-width="1.5" stroke-miterlimit="10" stroke-linecap="round" stroke-linejoin="round"/>
<path d="M12.4834 4.93871C12.4834 4.93871 16.5931 4.21393 19.2614 7.21471C21.9296 10.2155 20.9209 13.7869 20.9209 13.7869" stroke="#AB68FF" stroke-width="1.5" stroke-miterlimit="10" stroke-linecap="round" stroke-linejoin="round"/>
</svg>
