<svg width="28" height="28" viewBox="0 0 28 28" fill="none" xmlns="http://www.w3.org/2000/svg">
<path d="M10.3885 17.6628C7.50597 14.2354 7.02498 11.5042 7.51269 9.92335C7.76159 9.11611 7.98695 8.3795 8.81438 7.71688C9.83689 6.89618 10.1968 7.12154 10.634 7.5588L11.5691 10.0074C11.781 10.6701 11.3 11.1645 11.004 11.4605C10.5197 11.9448 10.1026 12.3619 10.1026 12.3619C10.1026 12.3619 10.6946 14.3027 12.1712 15.7792L12.5681 16.1829C14.0446 17.6594 15.9316 18.0866 15.9316 18.0866C15.9316 18.0866 16.6985 17.3197 17.1862 16.832C17.4788 16.5394 17.8353 16.0012 18.6291 16.3611L21.108 17.4274C21.5453 17.8646 21.6731 18.4431 20.6035 19.5094C18.6291 21.4838 14.2532 21.4972 10.3885 17.6628Z" stroke="#75CD1E" stroke-width="1.5" stroke-miterlimit="10" stroke-linecap="round" stroke-linejoin="round"/>
<path d="M27 13.872C27 20.9791 21.2383 26.7408 14.1312 26.7408C11.7532 26.7408 9.52652 26.095 7.61604 24.9716L1 26.9225L3.14929 20.5822C1.95188 18.628 1.26235 16.3307 1.26235 13.872C1.26235 6.76488 7.02406 1.00317 14.1312 1.00317C21.2383 1.00317 27 6.76488 27 13.872Z" stroke="#75CD1E" stroke-width="1.5" stroke-miterlimit="10" stroke-linecap="round" stroke-linejoin="round"/>
</svg>
