<svg width="42" height="38" viewBox="0 0 42 38" fill="none" xmlns="http://www.w3.org/2000/svg">
<path d="M37.0668 9.42847H5.8668C3.71289 9.42847 1.9668 11.1579 1.9668 13.2913V32.6052C1.9668 34.7386 3.71289 36.468 5.8668 36.468H37.0668C39.2207 36.468 40.9668 34.7386 40.9668 32.6052V13.2913C40.9668 11.1579 39.2207 9.42847 37.0668 9.42847Z" stroke="#E3242A" stroke-width="2" stroke-linecap="round" stroke-linejoin="round"/>
<path d="M29.266 36.4679V5.56567C29.266 4.54119 28.8551 3.55868 28.1237 2.83426C27.3923 2.10985 26.4003 1.70288 25.366 1.70288H17.566C16.5317 1.70288 15.5397 2.10985 14.8083 2.83426C14.0769 3.55868 13.666 4.54119 13.666 5.56567V36.4679" stroke="#E3242A" stroke-width="2" stroke-linecap="round" stroke-linejoin="round"/>
</svg>
