<svg width="100" height="117" viewBox="0 0 100 117" fill="none" xmlns="http://www.w3.org/2000/svg">
<path d="M3.924 33.096C3.244 33.096 2.632 32.956 2.088 32.676C1.552 32.388 1.132 31.992 0.828 31.488C0.524 30.984 0.372 30.412 0.372 29.772C0.372 29.132 0.524 28.56 0.828 28.056C1.132 27.552 1.552 27.16 2.088 26.88C2.632 26.592 3.244 26.448 3.924 26.448C4.604 26.448 5.212 26.592 5.748 26.88C6.284 27.16 6.704 27.552 7.008 28.056C7.312 28.56 7.464 29.132 7.464 29.772C7.464 30.412 7.312 30.984 7.008 31.488C6.704 31.992 6.284 32.388 5.748 32.676C5.212 32.956 4.604 33.096 3.924 33.096ZM3.924 31.56C4.404 31.56 4.796 31.4 5.1 31.08C5.412 30.752 5.568 30.316 5.568 29.772C5.568 29.228 5.412 28.796 5.1 28.476C4.796 28.148 4.404 27.984 3.924 27.984C3.444 27.984 3.048 28.148 2.736 28.476C2.424 28.796 2.268 29.228 2.268 29.772C2.268 30.316 2.424 30.752 2.736 31.08C3.048 31.4 3.444 31.56 3.924 31.56ZM13.9412 28.08H11.7572V33H9.89719V28.08H7.71319V26.544H13.9412V28.08Z" fill="white"/>
<path d="M58.376 35.652C58.88 35.652 59.294 35.814 59.618 36.138C59.942 36.45 60.104 36.864 60.104 37.38C60.104 37.62 60.074 37.86 60.014 38.1C59.954 38.34 59.822 38.7 59.618 39.18L58.592 41.772H56.81L57.602 38.91C57.302 38.79 57.062 38.598 56.882 38.334C56.714 38.058 56.63 37.74 56.63 37.38C56.63 36.864 56.792 36.45 57.116 36.138C57.452 35.814 57.872 35.652 58.376 35.652ZM72.9509 36.354H70.8989V39H68.0549V36.354H61.2689V34.392L67.2089 26.4H70.2689L64.7609 33.978H68.1449V31.62H70.8989V33.978H72.9509V36.354ZM76.1942 33.204C75.2702 33.204 74.5142 32.892 73.9262 32.268C73.3502 31.632 73.0622 30.786 73.0622 29.73C73.0622 28.674 73.3502 27.834 73.9262 27.21C74.5142 26.574 75.2702 26.256 76.1942 26.256C77.1182 26.256 77.8682 26.574 78.4442 27.21C79.0202 27.834 79.3082 28.674 79.3082 29.73C79.3082 30.786 79.0202 31.632 78.4442 32.268C77.8682 32.892 77.1182 33.204 76.1942 33.204ZM83.7002 26.4H85.8422L77.2382 39H75.0962L83.7002 26.4ZM76.1942 31.728C76.6022 31.728 76.9202 31.56 77.1482 31.224C77.3882 30.888 77.5082 30.39 77.5082 29.73C77.5082 29.07 77.3882 28.572 77.1482 28.236C76.9202 27.9 76.6022 27.732 76.1942 27.732C75.7982 27.732 75.4802 27.906 75.2402 28.254C75.0002 28.59 74.8802 29.082 74.8802 29.73C74.8802 30.378 75.0002 30.876 75.2402 31.224C75.4802 31.56 75.7982 31.728 76.1942 31.728ZM84.7442 39.144C84.1442 39.144 83.6042 39.006 83.1242 38.73C82.6562 38.442 82.2902 38.034 82.0262 37.506C81.7622 36.978 81.6302 36.366 81.6302 35.67C81.6302 34.974 81.7622 34.362 82.0262 33.834C82.2902 33.306 82.6562 32.904 83.1242 32.628C83.6042 32.34 84.1442 32.196 84.7442 32.196C85.6682 32.196 86.4182 32.514 86.9942 33.15C87.5822 33.774 87.8762 34.614 87.8762 35.67C87.8762 36.726 87.5822 37.572 86.9942 38.208C86.4182 38.832 85.6682 39.144 84.7442 39.144ZM84.7442 37.668C85.1522 37.668 85.4702 37.5 85.6982 37.164C85.9382 36.816 86.0582 36.318 86.0582 35.67C86.0582 35.022 85.9382 34.53 85.6982 34.194C85.4702 33.846 85.1522 33.672 84.7442 33.672C84.3482 33.672 84.0302 33.84 83.7902 34.176C83.5502 34.512 83.4302 35.01 83.4302 35.67C83.4302 36.33 83.5502 36.828 83.7902 37.164C84.0302 37.5 84.3482 37.668 84.7442 37.668Z" fill="white"/>
<path d="M49.3945 25.8086H51.8555V39.2852H50.8594C46.4062 39.2852 42.4414 39.9492 38.9648 41.2773C35.4883 42.6055 32.5391 44.5 30.1172 46.9609C27.7344 49.3828 25.8984 52.3125 24.6094 55.75C23.3594 59.1875 22.7344 63.0352 22.7344 67.293V81.4727C22.7344 84.5195 23.0273 87.2148 23.6133 89.5586C24.2383 91.8633 25.1172 93.7969 26.25 95.3594C27.4219 96.8828 28.7891 98.0352 30.3516 98.8164C31.9141 99.5586 33.6719 99.9297 35.625 99.9297C37.4609 99.9297 39.1211 99.5391 40.6055 98.7578C42.1289 97.9766 43.418 96.8828 44.4727 95.4766C45.5664 94.0312 46.3867 92.3516 46.9336 90.4375C47.5195 88.4844 47.8125 86.3555 47.8125 84.0508C47.8125 81.7461 47.5195 79.6172 46.9336 77.6641C46.3867 75.7109 45.5664 74.0312 44.4727 72.625C43.3789 71.1797 42.0508 70.0664 40.4883 69.2852C38.9258 68.5039 37.168 68.1133 35.2148 68.1133C32.5586 68.1133 30.2148 68.7383 28.1836 69.9883C26.1914 71.1992 24.6289 72.7617 23.4961 74.6758C22.3633 76.5898 21.7578 78.6016 21.6797 80.7109L16.582 77.4297C16.6992 74.4219 17.3242 71.5703 18.457 68.875C19.6289 66.1797 21.2305 63.7969 23.2617 61.7266C25.332 59.6172 27.8125 57.9766 30.7031 56.8047C33.5938 55.5938 36.8555 54.9883 40.4883 54.9883C44.4727 54.9883 47.9688 55.75 50.9766 57.2734C54.0234 58.7969 56.5625 60.8867 58.5938 63.543C60.625 66.1992 62.1484 69.2656 63.1641 72.7422C64.1797 76.2188 64.6875 79.9297 64.6875 83.875C64.6875 88.0156 64.0039 91.8633 62.6367 95.418C61.3086 98.9727 59.375 102.078 56.8359 104.734C54.3359 107.391 51.3281 109.461 47.8125 110.945C44.2969 112.43 40.3516 113.172 35.9766 113.172C31.4453 113.172 27.3242 112.352 23.6133 110.711C19.9414 109.031 16.7773 106.688 14.1211 103.68C11.4648 100.672 9.41406 97.0977 7.96875 92.957C6.5625 88.8164 5.85938 84.2852 5.85938 79.3633V72.8008C5.85938 65.9258 6.85547 59.6367 8.84766 53.9336C10.8789 48.1914 13.7891 43.2305 17.5781 39.0508C21.3672 34.832 25.9375 31.5703 31.2891 29.2656C36.6406 26.9609 42.6758 25.8086 49.3945 25.8086Z" fill="white"/>
</svg>
