<svg width="44" height="45" viewBox="0 0 44 45" fill="none" xmlns="http://www.w3.org/2000/svg">
<path d="M10.0676 43.6153H3.32662C2.57891 43.6153 1.9668 43.0007 1.9668 42.25V17.7748C1.9668 17.024 2.57891 16.4094 3.32662 16.4094H10.0715C10.8192 16.4094 11.4313 17.024 11.4313 17.7748V42.25C11.4274 43.0007 10.8153 43.6153 10.0676 43.6153Z" stroke="#E32429" stroke-width="2" stroke-miterlimit="10" stroke-linecap="round" stroke-linejoin="round"/>
<path d="M11.6719 19.0156C11.6719 19.0156 19.6332 10.948 20.656 8.96806C21.6827 6.9881 21.5935 2.62365 21.9577 2.23466C22.8953 1.23107 25.6498 1.21162 26.4517 1.76009C27.0135 2.1413 30.5389 6.72748 26.2154 17.0085C26.2154 17.0085 34.2 16.8879 37.5124 16.8879C40.8248 16.8879 42.727 18.0821 42.727 20.451C42.727 23.279 41.4408 24.1736 41.4408 24.1736C41.4408 24.1736 43.4669 25.255 42.8509 27.8963C42.2388 30.5219 39.864 31.0626 39.864 31.0626C39.864 31.0626 41.464 32.7664 40.573 35.4971C39.7323 38.0839 37.2722 38.3095 37.2722 38.3095C37.2722 38.3095 38.9226 42.0749 35.4436 43.0202C34.1225 43.378 21.2061 43.0202 18.839 43.0202C16.4719 43.0202 11.7881 40.2428 11.7881 40.2428" stroke="#E32429" stroke-width="2" stroke-miterlimit="10" stroke-linecap="round" stroke-linejoin="round"/>
</svg>
